<svg xmlns="http://www.w3.org/2000/svg" width="333" height="333"><path fill="#FCC400" d="M1 0h332v333H1zm19 19v295h295V19z"/><path fill="#FCC500" d="M167.984 98.003c2.71 1.34 4.446 3.091 6.563 5.25l2.558 2.589 2.645 2.72 2.691 2.733A1572 1572 0 0 1 189 118c-1.426 3.259-3.167 5.402-5.695 7.89l-2.168 2.15-2.262 2.21-2.285 2.258A1634 1634 0 0 1 171 138c20.8 2.508 33.068-2.14 49.685-13.737L223 123c3.936 1.312 4.287 2.828 6.187 6.437l1.606 2.997C232 135 232 135 232 137l-2.37 1.123c-14.125 6.094-14.125 6.094-24.96 16.158-1.37 5.038-.53 8.318.33 13.719h31v15h-31v17l5 2c3.639 1.88 7.188 3.916 10.75 5.937l2.941 1.631 2.793 1.584 2.554 1.438C231 214 231 214 232 217c-1.434 2.918-1.434 2.918-3.438 6.187l-1.996 3.293L225 229a966 966 0 0 1-6.188-3l-1.943-.936c-4.284-2.114-7.908-4.571-11.744-7.439-9.362-5.385-9.362-5.385-31.125-4.625v-50h-13v50l-23 1c-5.336 2.191-9.115 3.922-13.75 7l-6.297 3.875-2.682 1.742C113 228 113 228 110 229q-1.798-2.897-3.563-5.813l-2.003-3.269C103 217 103 217 104 214c2.484-1.464 2.484-1.464 5.75-3.012 12.267-5.393 12.267-5.393 21.575-14.256 1.372-5.043.536-8.326-.325-13.732H99v-15h32v-16l-5-2q-2.783-1.478-5.52-3.04l-3.095-1.757-3.198-1.828-3.255-1.852Q106.963 139.266 103 137c1.222-3.792 2.438-7.037 4.625-10.375l1.352-2.086L110 123c4.079.998 7.072 2.636 10.45 5.04 14.824 10.306 26.752 11.684 44.55 9.96l-1.668-1.589a1267 1267 0 0 1-7.395-7.161l-2.626-2.5-2.471-2.422-2.301-2.222C147 120 147 120 147.017 118.002c2.211-4.502 6.283-7.813 9.795-11.315l2.487-2.572 2.408-2.416 2.202-2.224C166 98 166 98 167.984 98.003"/></svg>